HIERARCHY
ROOT hip
{
  OFFSET 52.2303 79.3905 48.202
  CHANNELS 6 Xposition Yposition Zposition Zrotation Xrotation Yrotation
  JOINT abdomen
  {
    OFFSET 0 20.6881 -0.73152
    CHANNELS 3 Zrotation Xrotation Yrotation
    JOINT chest
    {
      OFFSET 0 11.7043 -0.48768
      CHANNELS 3 Zrotation Xrotation Yrotation
      JOINT neck
      {
        OFFSET 0 22.1894 -2.19456
        CHANNELS 3 Zrotation Xrotation Yrotation
        JOINT head
        {
          OFFSET -0.24384 7.07133 1.2192
          CHANNELS 3 Zrotation Xrotation Yrotation
          JOINT leftEye
          {
            OFFSET 4.14528 8.04674 8.04672
            CHANNELS 3 Zrotation Xrotation Yrotation
            End Site
            {
              OFFSET 1 0 0
            }
          }
          JOINT rightEye
          {
            OFFSET -3.6576 8.04674 8.04672
            CHANNELS 3 Zrotation Xrotation Yrotation
            End Site
            {
              OFFSET 1 0 0
            }
          }
        }
      }
      JOINT rCollar
      {
        OFFSET -2.68224 19.2634 -4.8768
        CHANNELS 3 Zrotation Xrotation Yrotation
        JOINT rShldr
        {
          OFFSET -8.77824 -1.95073 1.46304
          CHANNELS 3 Zrotation Xrotation Yrotation
          JOINT rForeArm
          {
            OFFSET -28.1742 -1.7115 0.48768
            CHANNELS 3 Zrotation Xrotation Yrotation
            JOINT rHand
            {
              OFFSET -22.5879 0.773209 7.07136
              CHANNELS 3 Zrotation Xrotation Yrotation
              JOINT rThumb1
              {
                OFFSET -1.2192 -0.487915 3.41376
                CHANNELS 3 Zrotation Xrotation Yrotation
                JOINT rThumb2
                {
                  OFFSET -3.37035 -0.52449 3.41376
                  CHANNELS 3 Zrotation Xrotation Yrotation
                  End Site
                  {
                    OFFSET -1.78271 -1.18214 1.43049
                  }
                }
              }
              JOINT rIndex1
              {
                OFFSET -7.75947 0.938293 5.60832
                CHANNELS 3 Zrotation Xrotation Yrotation
                JOINT rIndex2
                {
                  OFFSET -2.54057 -0.884171 1.56538
                  CHANNELS 3 Zrotation Xrotation Yrotation
                  End Site
                  {
                    OFFSET -1.62519 -0.234802 1.16502
                  }
                }
              }
              JOINT rMid1
              {
                OFFSET -8.24714 1.18213 3.41376
                CHANNELS 3 Zrotation Xrotation Yrotation
                JOINT rMid2
                {
                  OFFSET -3.10165 -0.590103 1.0647
                  CHANNELS 3 Zrotation Xrotation Yrotation
                  End Site
                  {
                    OFFSET -2.48547 -0.328903 0.83742
                  }
                }
              }
              JOINT rRing1
              {
                OFFSET -8.82822 0.546677 1.51678
                CHANNELS 3 Zrotation Xrotation Yrotation
                JOINT rRing2
                {
                  OFFSET -2.60934 -0.819778 -0.0198488
                  CHANNELS 3 Zrotation Xrotation Yrotation
                  End Site
                  {
                    OFFSET -2.33842 -0.294052 0.168128
                  }
                }
              }
              JOINT rPinky1
              {
                OFFSET -8.27202 -0.0477905 -0.4584
                CHANNELS 3 Zrotation Xrotation Yrotation
                JOINT rPinky2
                {
                  OFFSET -1.82734 -0.647385 -0.700984
                  CHANNELS 3 Zrotation Xrotation Yrotation
                  End Site
                  {
                    OFFSET -1.69225 -0.51767 -0.607171
                  }
                }
              }
            }
          }
        }
      }
      JOINT lCollar
      {
        OFFSET 2.68224 19.2634 -4.8768
        CHANNELS 3 Zrotation Xrotation Yrotation
        JOINT lShldr
        {
          OFFSET 8.77824 -1.95073 1.46304
          CHANNELS 3 Zrotation Xrotation Yrotation
          JOINT lForeArm
          {
            OFFSET 28.1742 -1.7115 0.48768
            CHANNELS 3 Zrotation Xrotation Yrotation
            JOINT lHand
            {
              OFFSET 22.5879 0.773209 7.07136
              CHANNELS 3 Zrotation Xrotation Yrotation
              JOINT lThumb1
              {
                OFFSET 1.2192 -0.487915 3.41376
                CHANNELS 3 Zrotation Xrotation Yrotation
                JOINT lThumb2
                {
                  OFFSET 3.37035 -0.52449 3.41376
                  CHANNELS 3 Zrotation Xrotation Yrotation
                  End Site
                  {
                    OFFSET 1.78271 -1.18214 1.43049
                  }
                }
              }
              JOINT lIndex1
              {
                OFFSET 7.75947 0.938293 5.60832
                CHANNELS 3 Zrotation Xrotation Yrotation
                JOINT lIndex2
                {
                  OFFSET 2.54057 -0.884171 1.56538
                  CHANNELS 3 Zrotation Xrotation Yrotation
                  End Site
                  {
                    OFFSET 1.62519 -0.234802 1.16502
                  }
                }
              }
              JOINT lMid1
              {
                OFFSET 8.24714 1.18213 3.41376
                CHANNELS 3 Zrotation Xrotation Yrotation
                JOINT lMid2
                {
                  OFFSET 3.10165 -0.590103 1.0647
                  CHANNELS 3 Zrotation Xrotation Yrotation
                  End Site
                  {
                    OFFSET 2.48547 -0.328903 0.83742
                  }
                }
              }
              JOINT lRing1
              {
                OFFSET 8.82822 0.546677 1.51678
                CHANNELS 3 Zrotation Xrotation Yrotation
                JOINT lRing2
                {
                  OFFSET 2.60934 -0.819778 -0.0198488
                  CHANNELS 3 Zrotation Xrotation Yrotation
                  End Site
                  {
                    OFFSET 2.33842 -0.294052 0.168128
                  }
                }
              }
              JOINT lPinky1
              {
                OFFSET 8.27202 -0.0477905 -0.4584
                CHANNELS 3 Zrotation Xrotation Yrotation
                JOINT lPinky2
                {
                  OFFSET 1.82734 -0.647385 -0.700984
                  CHANNELS 3 Zrotation Xrotation Yrotation
                  End Site
                  {
                    OFFSET 1.69225 -0.51767 -0.607171
                  }
                }
              }
            }
          }
        }
      }
    }
  }
  JOINT rButtock
  {
    OFFSET -8.77824 4.35084 1.2192
    CHANNELS 3 Zrotation Xrotation Yrotation
    JOINT rThigh
    {
      OFFSET 0 -1.70687 -2.19456
      CHANNELS 3 Zrotation Xrotation Yrotation
      JOINT rShin
      {
        OFFSET 0 -36.8199 0.73152
        CHANNELS 3 Zrotation Xrotation Yrotation
        JOINT rFoot
        {
          OFFSET 0.73152 -45.1104 -5.12064
          CHANNELS 3 Zrotation Xrotation Yrotation
          End Site
          {
            OFFSET -1.1221 -3.69964 12.103
          }
        }
      }
    }
  }
  JOINT lButtock
  {
    OFFSET 8.77824 4.35084 1.2192
    CHANNELS 3 Zrotation Xrotation Yrotation
    JOINT lThigh
    {
      OFFSET 0 -1.70687 -2.19456
      CHANNELS 3 Zrotation Xrotation Yrotation
      JOINT lShin
      {
        OFFSET 0 -36.8199 0.73152
        CHANNELS 3 Zrotation Xrotation Yrotation
        JOINT lFoot
        {
          OFFSET -0.73152 -45.1104 -5.12064
          CHANNELS 3 Zrotation Xrotation Yrotation
          End Site
          {
            OFFSET 1.1221 -3.69964 12.103
          }
        }
      }
    }
  }
}
MOTION
Frames:	4
Frame Time:	0.00833333
58.6117 83.0696 15.5788 2.49978 0.00856527 -0.0474183 -3.29162 -0.00200125 -0.0897123 -0.910494 0.010827 -0.157566 1.2393e-013 7.95139e-016 -5.46658e-016 3.71233e-013 9.54166e-015 -1.54524e-015 -0 0 0 -0 0 0 6.16247e-014 1.32782e-016 -9.93923e-017 1.30355e-012 2.73329e-015 5.96354e-016 2.23869e-011 -6.62887e-012 -2.60805e-013 2.5686e-010 7.26081e-012 -5.59778e-013 6.05767e-010 1.37065e-012 -1.8161e-012 1.04613e-009 2.36633e-012 -3.1567e-012 6.05774e-010 1.37281e-012 -1.82564e-012 7.73091 5.47488 0.417314 6.05767e-010 1.37032e-012 -1.80974e-012 2.90554 0.965183 0.102902 6.05776e-010 1.37112e-012 -1.81371e-012 10.2786 0.731801 0.0259123 6.05763e-010 1.37161e-012 -1.80656e-012 2.22167 -0.733487 -0.20892 6.1427e-014 1.3317e-016 -3.97569e-016 1.3021e-012 2.23012e-015 -1.39149e-015 2.25008e-011 6.79207e-012 -3.24417e-013 2.56805e-010 -6.18735e-012 -4.70722e-013 6.0589e-010 1.31752e-012 -1.78747e-012 1.04635e-009 2.2741e-012 -3.10979e-012 6.05886e-010 1.31914e-012 -1.77157e-012 -7.73091 5.47488 -0.417314 6.05891e-010 1.31725e-012 -1.78747e-012 -2.90554 0.965183 -0.102902 6.05889e-010 1.31764e-012 -1.78906e-012 -10.2786 0.731801 -0.0259123 6.059e-010 1.32033e-012 -1.80974e-012 -2.22167 -0.733487 0.20892 -2.03217e-016 0 -3.88251e-019 -2.14067 -1.93291 0.0183697 -0.00780772 -2.07877 -0.0636348 -0.355987 4.00069 0.117286 2.03217e-016 0 3.88251e-019 -2.88093 -9.67716 0.338993 -0.0100196 11.9463 -0.261549 0.458727 -2.28004 -0.00597878 
55.5018 79.9168 10.1763 1.65412 7.83914 -9.99434 -1.49843 -6.47644 0.590043 -1.78689 0.840724 0.0023019 3.51271 -1.36079 2.66755 -2.02363 0.0314652 3.94516 -0 0 0 -0 0 0 4.58952e-015 -7.13528e-014 -4.12488e-013 6.81876 4.00729 -0.683392 1.54894 15.6205 -41.443 0.100996 -7.06666 -0.966187 2.12043e-009 3.06547e-009 9.16096e-010 3.64874e-009 5.40661e-009 1.61786e-009 2.12044e-009 3.06547e-009 9.16087e-010 7.73091 5.47488 0.417314 2.12043e-009 3.06546e-009 9.16103e-010 2.90554 0.965183 0.102902 2.12044e-009 3.06547e-009 9.16098e-010 10.2786 0.731801 0.0259123 2.12043e-009 3.06547e-009 9.16105e-010 2.22167 -0.733487 -0.20892 4.40192e-015 -7.13557e-014 -4.12759e-013 -17.8904 8.64618 1.38609 4.43377 -2.05898 -6.87635 -0.474104 -15.3803 1.89082 -5.91068e-010 -1.12605e-009 -8.72913e-010 -9.77407e-010 -1.95023e-009 -1.54631e-009 -5.9107e-010 -1.12605e-009 -8.72897e-010 -7.73091 5.47488 -0.417314 -5.91066e-010 -1.12605e-009 -8.72914e-010 -2.90554 0.965183 -0.102902 -5.91068e-010 -1.12605e-009 -8.72915e-010 -10.2786 0.731801 -0.0259123 -5.91059e-010 -1.12605e-009 -8.72931e-010 -2.22167 -0.733487 0.20892 -2.03217e-016 0 -3.88251e-019 -2.45279 -5.92269 6.09657 0.00197931 3.0444 0.0623077 -1.01169 -0.485544 -5.22183 2.03217e-016 0 3.88251e-019 1.43089 -20.7669 -0.173296 0.0979943 18.2786 -0.197222 0.763537 -2.89699 1.62944 
55.3323 79.9439 9.67073 3.74925 15.3208 -21.0961 0.557552 -13.3156 1.35056 -2.72114 1.72229 0.176255 7.35741 -2.80732 5.48392 -4.15198 0.0580221 8.09685 -0 0 0 -0 0 0 -6.23154e-014 -1.51512e-013 -8.68708e-013 14.0919 8.33063 -1.43784 17.4245 5.72858 -83.6255 -0.0589744 -14.4927 -2.03249 3.82742e-009 6.44569e-009 1.92149e-009 6.58245e-009 1.13698e-008 3.39424e-009 3.82742e-009 6.4457e-009 1.92148e-009 7.73091 5.47488 0.417314 3.82742e-009 6.44569e-009 1.9215e-009 2.90554 0.965183 0.102902 3.82742e-009 6.44569e-009 1.92149e-009 10.2786 0.731801 0.0259123 3.82741e-009 6.44569e-009 1.9215e-009 2.22167 -0.733487 -0.20892 -6.24944e-014 -1.51519e-013 -8.6895e-013 -37.2619 17.788 2.95775 8.58409 -4.1341 -14.1685 0.301788 -31.5657 4.40149 -1.89876e-009 -2.37062e-009 -1.85206e-009 -3.18718e-009 -4.10628e-009 -3.27976e-009 -1.89876e-009 -2.37062e-009 -1.85205e-009 -7.73091 5.47488 -0.417314 -1.89875e-009 -2.37062e-009 -1.85207e-009 -2.90554 0.965183 -0.102902 -1.89876e-009 -2.37062e-009 -1.85207e-009 -10.2786 0.731801 -0.0259123 -1.89875e-009 -2.37062e-009 -1.85208e-009 -2.22167 -0.733487 0.20892 -2.03217e-016 0 -3.88251e-019 -1.86993 -9.95603 12.6559 -0.0123156 8.45917 0.197386 -2.6094 -5.12378 -10.9165 2.03217e-016 0 3.88251e-019 5.72207 -32.492 -0.807786 0.195924 24.9929 -0.127195 1.12436 -3.57327 3.34707 
55.1653 79.9701 9.1804 8.15688 20.5894 -31.8522 2.57166 -19.4148 2.05517 -3.55358 2.50048 0.322344 10.9177 -4.04695 8.02053 -6.08378 0.0926083 11.8355 -0 0 0 -0 0 0 -1.09481e-013 -2.14324e-013 -1.23727e-012 20.7485 12.0149 -2.09099 22.5976 -25.014 -104.761 -0.455685 -21.175 -3.08502 5.14977e-009 9.19366e-009 2.75192e-009 8.85397e-009 1.62151e-008 4.85989e-009 5.14977e-009 9.19366e-009 2.75191e-009 7.73091 5.47488 0.417314 5.14976e-009 9.19365e-009 2.75193e-009 2.90554 0.965183 0.102902 5.14977e-009 9.19365e-009 2.75192e-009 10.2786 0.731801 0.0259123 5.14976e-009 9.19366e-009 2.75193e-009 2.22167 -0.733487 -0.20892 -1.09648e-013 -2.14334e-013 -1.23748e-012 -55.0437 25.8743 4.56997 11.8479 -5.8218 -20.7274 2.74175 -45.8937 7.87102 -2.98498e-009 -3.38078e-009 -2.61517e-009 -5.02492e-009 -5.85525e-009 -4.63272e-009 -2.98498e-009 -3.38078e-009 -2.61515e-009 -7.73091 5.47488 -0.417314 -2.98498e-009 -3.38078e-009 -2.61517e-009 -2.90554 0.965183 -0.102902 -2.98498e-009 -3.38078e-009 -2.61517e-009 -10.2786 0.731801 -0.0259123 -2.98498e-009 -3.38078e-009 -2.61517e-009 -2.22167 -0.733487 0.20892 -2.03217e-016 0 -3.88251e-019 -0.526999 -13.2924 18.673 -0.0472715 13.2905 0.322482 -4.82098 -9.09893 -16.107 2.03217e-016 0 3.88251e-019 9.27851 -42.9355 -1.57695 0.266733 30.9432 -0.0583458 1.47888 -4.11931 4.90672 
